<svg width="42" height="130" viewBox="0 0 42 130" fill="none" xmlns="http://www.w3.org/2000/svg">
<path fill-rule="evenodd" clip-rule="evenodd" d="M25.175 42.9744L29.5073 44.5271L29.4877 117.492L21 130L12.5123 117.492L12.4926 44.5271L16.8249 42.9744L16.8446 41.8934C12.6778 41.5789 8.6093 39.8296 5.44491 36.6652C-1.61109 29.6092 -1.61109 12.6111 5.44491 5.55508C12.5009 -1.50093 29.4991 -1.50093 36.5551 5.55508C43.6111 12.6111 43.6111 29.6092 36.5551 36.6652C33.3907 39.8296 29.3222 41.5789 25.1554 41.8934L25.175 42.9744ZM9.37583 9.48599C4.48184 14.38 4.48184 27.8403 9.37583 32.7343C14.2698 37.6283 27.7301 37.6283 32.6241 32.7343C37.5181 27.8403 37.5181 14.38 32.6241 9.48599C27.7301 4.592 14.2698 4.592 9.37583 9.48599Z" fill="#FFC700"/>
<mask id="mask0" style="mask-type:alpha" maskUnits="userSpaceOnUse" x="0" y="0" width="42" height="130">
<path fill-rule="evenodd" clip-rule="evenodd" d="M25.175 42.9744L29.5073 44.5271L29.4877 117.492L21 130L12.5123 117.492L12.4926 44.5271L16.8249 42.9744L16.8446 41.8934C12.6778 41.5789 8.6093 39.8296 5.44491 36.6652C-1.61109 29.6092 -1.61109 12.6111 5.44491 5.55508C12.5009 -1.50093 29.4991 -1.50093 36.5551 5.55508C43.6111 12.6111 43.6111 29.6092 36.5551 36.6652C33.3907 39.8296 29.3222 41.5789 25.1554 41.8934L25.175 42.9744ZM9.37583 9.48599C4.48184 14.38 4.48184 27.8403 9.37583 32.7343C14.2698 37.6283 27.7301 37.6283 32.6241 32.7343C37.5181 27.8403 37.5181 14.38 32.6241 9.48599C27.7301 4.592 14.2698 4.592 9.37583 9.48599Z" fill="#FFC700"/>
</mask>
<g mask="url(#mask0)">
<path d="M21 42.9991V129.999L34.9091 118.589L38 42.9991H21Z" fill="url(#paint0_linear)"/>
</g>
<path d="M27.9489 22.4999L27.9489 19.7204L22.3898 19.7204L22.3898 14.1612L19.6102 14.1612L19.6102 19.7204L14.051 19.7204L14.051 22.4999L19.6102 22.4999L19.6102 28.0591L22.3898 28.0591L22.3898 22.4999L27.9489 22.4999Z" fill="#FFC700"/>
<defs>
<linearGradient id="paint0_linear" x1="-9.07048" y1="21.185" x2="58.7434" y2="91.5172" gradientUnits="userSpaceOnUse">
<stop stop-color="white"/>
<stop offset="1" stop-color="white" stop-opacity="0"/>
</linearGradient>
</defs>
</svg>
